<svg xmlns="http://www.w3.org/2000/svg" viewBox="0 0 24 24" fill="#000000">
  <path d="M12 .297C5.37.297 0 5.67 0 12c0 5.303 3.438 9.8 8.205 11.385.6.113.82-.258.82-.577 
  0-.285-.01-1.04-.015-2.04-3.338.724-4.042-1.61-4.042-1.61
  -.546-1.387-1.333-1.757-1.333-1.757-1.09-.744.083-.729.083-.729 
  1.205.085 1.84 1.236 1.84 1.236 1.07 1.835 2.809 1.305 3.495.998.108-.775.418-1.305.762-1.605
  -2.665-.3-5.466-1.332-5.466-5.93 
  0-1.31.467-2.381 1.235-3.221-.123-.303-.535-1.523.117-3.176 
  0 0 1.008-.322 3.301 1.23.957-.266 1.983-.399 3.003-.405 
  1.02.006 2.047.139 3.006.405 2.289-1.552 3.295-1.23 3.295-1.23
  .653 1.653.241 2.873.118 3.176.77.84 1.233 1.911 1.233 3.221 
  0 4.61-2.803 5.625-5.475 5.921.43.372.823 1.102.823 2.222 
  0 1.606-.015 2.896-.015 3.286 0 .319.216.694.825.576 
  C20.565 22.092 24 17.592 24 12.297 24 5.67 18.627.297 12 .297z"/>
</svg>
